<svg width="244" height="244" viewBox="0 0 244 244" fill="none" xmlns="http://www.w3.org/2000/svg">
<path d="M45.6571 155.599C40.6502 147.947 41.3822 137.016 47.3358 130.096C49.1902 127.949 51.7815 126.08 54.6119 126.324C57.4423 126.568 59.8384 129.052 60.7217 131.823C61.605 134.595 61.2926 137.592 60.7754 140.451C60.0531 144.453 58.8234 148.547 56.0613 151.524C53.2992 154.501 49.2293 157.551 45.6376 155.599" fill="#FD2C2C"/>
<path d="M47.1701 192.433C46.2713 190.208 46.0954 187.756 46.6674 185.426C47.2393 183.095 48.53 181.004 50.3567 179.447C51.5084 178.506 53.0114 177.778 54.4462 178.159C55.8809 178.54 56.8862 180.043 57.096 181.546C57.3058 183.049 56.8666 184.571 56.3445 185.996C55.6076 187.997 54.6121 189.998 52.9285 191.276C51.2449 192.555 48.8488 193.76 47.1896 192.433" fill="#FD2C2C"/>
<path d="M36.3559 189.803C37.7321 183 34.1599 175.534 28.016 172.342C26.1079 171.366 23.7655 170.761 21.8428 171.727C19.9201 172.693 18.9148 175.109 19.0856 177.305C19.2564 179.501 20.2958 181.536 21.4719 183.39C23.1018 186.001 25.1026 188.544 27.8891 189.856C30.6756 191.169 34.4039 192.179 36.3657 189.803" fill="#FD2C2C"/>
<path d="M37.2246 171.459C39.6207 163.729 35.5605 154.379 28.7871 149.923C26.6887 148.547 24.0291 147.591 21.6818 148.459C19.3345 149.328 17.8949 152.056 17.8217 154.628C17.7485 157.199 18.7343 159.674 19.8713 161.982C21.4622 165.212 23.4923 168.404 26.5764 170.278C29.6606 172.152 34.6626 173.987 37.2246 171.454" fill="#FD2C2C"/>
<path d="M40.782 209.24C40.7414 209.12 40.7152 208.995 40.7039 208.869C40.66 208.586 40.6063 208.23 40.5429 207.79C40.5087 207.551 40.4746 207.302 40.4355 207.01C40.3965 206.717 40.3184 206.419 40.255 206.092C40.133 205.433 40.0012 204.677 39.767 203.862C39.6645 203.447 39.562 203.018 39.4546 202.574C39.3473 202.13 39.1911 201.671 39.0496 201.193C38.791 200.217 38.4103 199.241 38.0736 198.182C37.2175 195.918 36.2217 193.71 35.0919 191.569C33.9326 189.449 32.6435 187.402 31.2318 185.44C30.5486 184.562 29.9338 183.693 29.2798 182.946L28.3575 181.848L27.4547 180.872C26.8935 180.238 26.3372 179.716 25.8541 179.247L25.1904 178.588L24.5999 178.071L23.7898 177.339C23.6044 177.168 23.5117 177.076 23.5215 177.066C23.6306 177.131 23.7335 177.206 23.8289 177.29L24.6829 177.974L25.2929 178.462L25.981 179.096C26.469 179.555 27.0448 180.072 27.6206 180.697L28.543 181.673L29.4897 182.766C30.1582 183.508 30.7878 184.371 31.4807 185.255C32.9152 187.223 34.2193 189.284 35.3847 191.423C36.5226 193.577 37.5171 195.804 38.3615 198.089C38.7129 199.158 39.0886 200.158 39.3375 201.124C39.4742 201.612 39.6011 202.071 39.7279 202.52C39.8548 202.969 39.928 203.403 40.0207 203.818C40.2257 204.643 40.3379 205.404 40.4453 206.068C40.499 206.4 40.5527 206.707 40.5966 206.995C40.6405 207.283 40.6551 207.542 40.6795 207.781C40.7186 208.225 40.7527 208.586 40.7771 208.869C40.791 208.992 40.7927 209.116 40.782 209.24Z" fill="#263238"/>
<path d="M40.6064 210.631C40.6 210.579 40.6 210.526 40.6064 210.474C40.6064 210.357 40.6064 210.211 40.6357 210.03C40.6747 209.611 40.7284 209.054 40.7967 208.313C40.8358 207.937 40.8748 207.522 40.9187 207.073C40.9627 206.624 40.9675 206.121 40.9919 205.609C41.031 204.545 41.1335 203.335 41.0944 201.998C41.0944 201.329 41.0944 200.631 41.0944 199.899C41.0944 199.167 41.0212 198.411 40.9822 197.625C40.9285 196.054 40.7187 194.39 40.5283 192.628C40.0114 188.834 39.2188 185.083 38.1567 181.404C37.0402 177.73 35.6571 174.142 34.0184 170.668C33.2181 169.092 32.4861 167.574 31.676 166.227C31.2759 165.549 30.9196 164.876 30.5292 164.275C30.1388 163.675 29.7679 163.051 29.3824 162.504C28.6846 161.357 27.9184 160.401 27.3328 159.532C27.0205 159.103 26.7375 158.698 26.4642 158.332C26.1909 157.966 25.9176 157.658 25.6834 157.356L24.6147 156.004C24.5073 155.857 24.4146 155.74 24.3414 155.648C24.2682 155.555 24.2535 155.521 24.2584 155.516C24.2633 155.511 24.3023 155.55 24.3707 155.623L24.6635 155.96L25.781 157.278L26.5862 158.254C26.8692 158.61 27.1571 159.015 27.4792 159.439C28.1039 160.298 28.8651 161.25 29.5776 162.367L30.7439 164.119C31.1441 164.734 31.5052 165.408 31.9103 166.071C32.735 167.418 33.4767 168.931 34.2868 170.512C35.9507 173.98 37.3488 177.569 38.469 181.248C39.5394 184.949 40.3273 188.725 40.826 192.545C41.0066 194.312 41.2115 195.986 41.2555 197.562C41.2847 198.352 41.3482 199.114 41.3482 199.846C41.3482 200.578 41.3482 201.28 41.3482 201.954C41.3482 203.296 41.2506 204.506 41.1969 205.57C41.1579 206.102 41.1383 206.595 41.0944 207.034C41.0505 207.473 40.9871 207.903 40.9431 208.274L40.7235 209.986C40.7235 210.167 40.6747 210.313 40.6601 210.43C40.6518 210.499 40.6338 210.567 40.6064 210.631Z" fill="#263238"/>
<path d="M53.6312 135.566C53.6141 135.615 53.5929 135.663 53.5677 135.708L53.3481 136.108L52.4941 137.616C52.3136 137.948 52.0891 138.309 51.8792 138.719L51.2107 140.066C50.9667 140.554 50.7227 141.042 50.4396 141.608C50.1566 142.174 49.9516 142.76 49.654 143.379C49.3563 143.999 49.083 144.648 48.8048 145.331C48.5267 146.015 48.2632 146.742 47.9752 147.483C47.8337 147.859 47.6873 148.235 47.5409 148.62L47.1359 149.816C46.8675 150.621 46.5844 151.451 46.3014 152.3C45.2376 155.716 44.2323 159.547 43.3734 163.602C42.5145 167.657 41.968 171.591 41.5629 175.158C41.1579 178.725 40.9285 181.956 40.8553 184.669C40.787 186.026 40.7724 187.255 40.7675 188.334C40.7626 189.412 40.7431 190.34 40.7675 191.101C40.7919 191.862 40.7675 192.423 40.7675 192.853C40.7675 193.033 40.7675 193.185 40.7675 193.307C40.7748 193.358 40.7748 193.411 40.7675 193.463C40.7604 193.411 40.7604 193.358 40.7675 193.307C40.7675 193.185 40.7675 193.038 40.7382 192.853C40.7382 192.428 40.6894 191.843 40.6552 191.106C40.6211 190.369 40.5918 189.412 40.5918 188.334C40.5918 187.255 40.5918 186.021 40.6308 184.659C40.6748 181.941 40.9236 178.706 41.2701 175.124C41.6166 171.542 42.2461 167.628 43.0757 163.558C43.9053 159.488 44.9399 155.662 46.0037 152.227C46.2916 151.378 46.5796 150.548 46.8528 149.738C46.9944 149.338 47.131 148.938 47.2676 148.547L47.7117 147.41L48.5657 145.258C48.8488 144.57 49.1562 143.926 49.4295 143.306C49.7028 142.686 49.9712 142.091 50.2396 141.54L51.035 140.002L51.7328 138.665C51.9524 138.255 52.1818 137.899 52.3721 137.572L53.2847 136.074C53.3823 135.918 53.4604 135.791 53.5287 135.688C53.597 135.586 53.6263 135.562 53.6312 135.566Z" fill="#263238"/>
<path d="M51.9281 182.512C51.7775 182.839 51.5995 183.152 51.3962 183.449C51.0302 184.03 50.5275 184.913 49.9322 185.977C49.3368 187.041 48.6927 188.378 48.0339 189.881C47.3751 191.384 46.7553 193.053 46.1941 194.844C45.6329 196.635 45.2181 198.387 44.9155 199.982C44.613 201.578 44.4275 203.037 44.286 204.262C44.1445 205.487 44.0908 206.487 44.0615 207.19C44.0625 207.548 44.0331 207.906 43.9737 208.259C43.9316 207.903 43.9185 207.544 43.9347 207.185C43.9347 206.492 43.9347 205.492 44.0567 204.257C44.1692 202.811 44.3565 201.371 44.6179 199.943C45.2526 196.439 46.3078 193.025 47.7606 189.773C48.434 188.28 49.1075 186.967 49.7126 185.894C50.3177 184.82 50.8643 183.971 51.2644 183.405C51.4627 183.091 51.6845 182.792 51.9281 182.512Z" fill="#263238"/>
<path d="M30.9539 205.799H52.9334L50.2738 228.242H33.6915L30.9539 205.799Z" fill="#455A64"/>
<path d="M31.759 225.822L33.6232 228.242H50.2738L52.1916 225.895L31.759 225.822Z" fill="#263238"/>
<path d="M52.0744 212.397C52.0744 212.49 47.5165 212.563 41.8899 212.563C36.2632 212.563 31.72 212.49 31.72 212.397C31.72 212.304 36.2779 212.236 41.9045 212.236C47.5312 212.236 52.0744 212.309 52.0744 212.397Z" fill="white"/>
<path d="M52.0744 213.895C52.0744 213.983 47.5165 214.056 41.8899 214.056C36.2632 214.056 31.72 213.983 31.72 213.895C31.72 213.807 36.2779 213.729 41.9045 213.729C47.5312 213.729 52.0744 213.803 52.0744 213.895Z" fill="white"/>
<path d="M51.8012 215.34C51.8012 215.432 47.4092 215.506 41.9729 215.506C36.5365 215.506 32.1445 215.432 32.1445 215.34C32.1445 215.247 36.5365 215.174 41.9729 215.174C47.4092 215.174 51.8012 215.252 51.8012 215.34Z" fill="white"/>
<path d="M225.368 228.267C225.368 228.34 177.774 228.394 119.077 228.394C60.3803 228.394 12.7759 228.34 12.7759 228.267C12.7759 228.194 60.3608 228.14 119.077 228.14C177.793 228.14 225.368 228.199 225.368 228.267Z" fill="#263238"/>
<path d="M216.643 73.1268C215.003 71.0528 214.969 67.2708 215.022 66.2606C215.149 63.9621 210.025 50.547 197.328 56.0858C192.775 56.0858 192.701 60.5803 191.838 61.4831C190.974 62.3859 190.012 63.3277 189.783 64.5575C189.383 66.7389 191.452 68.8568 190.925 71.0089C190.73 71.8141 190.188 72.5021 189.808 73.239C189.398 73.8978 189.075 74.9714 189.251 75.5668C189.471 76.1479 189.761 76.7002 190.115 77.2113C190.472 77.7274 190.637 78.3529 190.579 78.9779C190.378 80.0808 189.115 80.6957 188.753 81.7644C188.392 82.8331 189.075 83.8969 189.676 84.8193C190.276 85.7416 190.852 86.9079 190.369 87.8985C190.049 88.3899 189.651 88.8265 189.193 89.1917C188.575 89.8349 188.16 90.6459 188 91.5233C187.841 92.4008 187.943 93.3058 188.295 94.1254L195.615 92.6614C195.94 89.1836 196.265 85.7025 196.591 82.2182C198.728 82.7501 201.066 81.3837 202.081 81.1251L203.325 80.4517C206.048 80.9397 208.986 80.7591 211.372 79.3683C213.759 77.9775 217.297 79.7587 216.833 77.0308C216.574 75.7229 217.477 74.176 216.643 73.1268Z" fill="#263238"/>
<path d="M208.317 60.4339L198.377 57.5059C195.176 57.0179 192.882 60.9219 192.545 64.1232C192.174 67.7002 191.867 72.0824 192.184 74.7713C192.818 80.1881 196.913 81.0372 196.913 81.0372C196.913 81.0372 196.195 88.7037 196.132 90.6216L208.376 84.3361L209.923 62.42C209.951 61.9483 209.802 61.483 209.505 61.1155C209.208 60.748 208.785 60.5049 208.317 60.4339Z" fill="#FFD3C1"/>
<path d="M193.165 68.52C193.156 68.6994 193.217 68.8754 193.335 69.0103C193.454 69.1453 193.62 69.2285 193.799 69.2423C193.887 69.2531 193.975 69.2464 194.06 69.2224C194.145 69.1984 194.224 69.1576 194.293 69.1026C194.361 69.0476 194.418 68.9793 194.46 68.9019C194.502 68.8245 194.528 68.7394 194.536 68.6518C194.546 68.4724 194.485 68.2965 194.366 68.1615C194.248 68.0266 194.081 67.9433 193.902 67.9296C193.814 67.918 193.726 67.9243 193.641 67.948C193.556 67.9717 193.476 68.0124 193.407 68.0676C193.339 68.1227 193.282 68.1913 193.24 68.269C193.198 68.3468 193.173 68.4322 193.165 68.52Z" fill="#263238"/>
<path d="M192.794 66.9439C193.259 66.9779 193.721 67.0365 194.18 67.1195C194.621 67.2986 195.053 67.5005 195.473 67.7247C195.522 67.7247 195.473 67.5636 195.268 67.3684C194.977 67.1065 194.63 66.9145 194.253 66.8072C193.888 66.6954 193.501 66.6737 193.126 66.7438C192.867 66.8072 192.76 66.8999 192.794 66.9439Z" fill="#263238"/>
<path d="M200.046 69.0813C200.038 69.2611 200.1 69.4371 200.219 69.5719C200.339 69.7067 200.506 69.7897 200.685 69.8035C200.773 69.8136 200.862 69.8062 200.946 69.7817C201.031 69.7571 201.11 69.7159 201.179 69.6605C201.247 69.605 201.304 69.5365 201.346 69.4588C201.388 69.3812 201.414 69.2959 201.422 69.2081C201.429 69.0286 201.366 68.8533 201.247 68.7188C201.128 68.5843 200.962 68.5008 200.783 68.4859C200.695 68.4758 200.606 68.4832 200.522 68.5078C200.437 68.5323 200.358 68.5735 200.289 68.6289C200.221 68.6844 200.164 68.7529 200.122 68.8306C200.08 68.9083 200.054 68.9935 200.046 69.0813Z" fill="#263238"/>
<path d="M200.173 67.9198C200.28 67.9686 200.812 67.6124 201.637 67.4953C202.461 67.3782 203.125 67.5587 203.203 67.4953C203.281 67.4318 203.125 67.3538 202.837 67.2708C202.424 67.1602 201.991 67.1369 201.568 67.2025C201.156 67.2528 200.76 67.3963 200.412 67.6222C200.182 67.7686 200.119 67.8954 200.173 67.9198Z" fill="#263238"/>
<path d="M197.606 72.7656C197.221 72.6248 196.819 72.5346 196.41 72.4972C196.22 72.4728 196.044 72.424 196.02 72.2972C196.011 72.0983 196.066 71.9017 196.176 71.736C196.371 71.2821 196.581 70.8088 196.796 70.311C197.655 68.2907 198.289 66.6217 198.206 66.5876C198.123 66.5534 197.362 68.1687 196.498 70.189C196.293 70.677 196.093 71.165 195.903 71.6188C195.775 71.8436 195.73 72.1061 195.776 72.3606C195.801 72.4275 195.841 72.488 195.893 72.5377C195.944 72.5875 196.006 72.6253 196.074 72.6485C196.178 72.682 196.286 72.7017 196.396 72.7071C196.795 72.776 197.202 72.7957 197.606 72.7656Z" fill="#263238"/>
<path d="M196.913 81.008C199.415 81.1957 201.919 80.655 204.121 79.4513C204.057 79.4513 201.915 83.1943 196.801 82.433L196.913 81.008Z" fill="#F4AF9B"/>
<path d="M197.85 74.5664C197.998 74.3943 198.188 74.2628 198.402 74.1843C198.615 74.1058 198.845 74.0828 199.07 74.1174C199.233 74.1392 199.39 74.1936 199.532 74.2774C199.673 74.3613 199.797 74.4728 199.894 74.6054C199.989 74.7324 200.041 74.8852 200.046 75.0432C200.05 75.2012 200.006 75.3567 199.919 75.4887C199.794 75.6152 199.636 75.7026 199.462 75.7399C199.289 75.7771 199.108 75.7628 198.943 75.6985C198.597 75.5588 198.283 75.3533 198.016 75.0934C197.934 75.0315 197.866 74.9534 197.816 74.8641C197.788 74.8237 197.774 74.7761 197.774 74.7274C197.774 74.6787 197.788 74.6311 197.816 74.5908" fill="#F4AF9B"/>
<path d="M199.772 73.3659C199.65 73.3659 199.616 74.1614 198.904 74.7031C198.191 75.2447 197.337 75.1227 197.327 75.235C197.318 75.3472 197.513 75.4009 197.874 75.4253C198.345 75.4496 198.81 75.308 199.187 75.0251C199.549 74.7519 199.791 74.35 199.865 73.9027C199.909 73.566 199.826 73.361 199.772 73.3659Z" fill="#263238"/>
<path d="M200.265 65.2797C200.334 65.4798 201.075 65.4164 201.944 65.5579C202.813 65.6994 203.506 65.9629 203.628 65.7873C203.681 65.6994 203.569 65.5091 203.291 65.2993C202.921 65.0448 202.498 64.8778 202.054 64.811C201.61 64.7442 201.157 64.7793 200.729 64.9137C200.407 65.026 200.241 65.1821 200.265 65.2797Z" fill="#263238"/>
<path d="M193.594 64.7966C193.716 64.9723 194.234 64.7966 194.849 64.8357C195.463 64.8747 195.981 64.9918 196.108 64.8357C196.166 64.7527 196.108 64.5819 195.868 64.4111C195.568 64.2107 195.215 64.1038 194.853 64.1038C194.492 64.1038 194.139 64.2107 193.838 64.4111C193.619 64.5429 193.536 64.7137 193.594 64.7966Z" fill="#263238"/>
<path d="M197.206 56.7886C201.209 57.4187 205.123 58.5262 208.864 60.0875C209.733 60.4535 210.64 60.878 211.128 61.6783C211.616 62.4787 211.577 63.5913 211.494 64.6063L210.25 79.056L209.733 79.0267C208.269 79.2707 208.142 78.5095 207.073 77.4407C206.545 76.8988 206.15 76.2415 205.92 75.5208C205.689 74.8 205.63 74.0356 205.746 73.2879C205.96 71.9751 206.722 70.6575 206.312 69.3839C205.77 67.7051 203.471 67.1098 202.92 65.4359C202.603 64.4599 202.964 63.3571 202.593 62.4006C202.222 61.4441 201.339 60.9366 200.446 60.595C199.553 60.2534 198.591 59.9703 197.855 59.3506C197.118 58.7308 196.664 57.584 197.206 56.7886Z" fill="#263238"/>
<path d="M164.588 47.1066H125.196C123.593 47.1066 122.293 48.4066 122.293 50.0102V81.6717C122.293 83.2753 123.593 84.5753 125.196 84.5753H164.588C166.191 84.5753 167.491 83.2753 167.491 81.6717V50.0102C167.491 48.4066 166.191 47.1066 164.588 47.1066Z" fill="#263238"/>
<path d="M144.892 71.6286C148.49 71.6286 151.407 68.7118 151.407 65.1138C151.407 61.5158 148.49 58.599 144.892 58.599C141.294 58.599 138.377 61.5158 138.377 65.1138C138.377 68.7118 141.294 71.6286 144.892 71.6286Z" fill="#FD2C2C"/>
<path d="M143.325 67.0219V63.1765C143.325 63.1341 143.336 63.0924 143.357 63.0555C143.378 63.0186 143.408 62.9878 143.445 62.9661C143.481 62.9444 143.523 62.9326 143.565 62.9319C143.608 62.9311 143.649 62.9414 143.687 62.9618L147.103 64.9138C147.14 64.9357 147.171 64.9671 147.193 65.0048C147.214 65.0424 147.226 65.0851 147.226 65.1285C147.226 65.1719 147.214 65.2146 147.193 65.2522C147.171 65.2899 147.14 65.3213 147.103 65.3432L143.687 67.2464C143.649 67.269 143.606 67.2807 143.562 67.2803C143.518 67.28 143.475 67.2675 143.438 67.2443C143.4 67.2211 143.37 67.1881 143.35 67.1489C143.331 67.1096 143.322 67.0657 143.325 67.0219Z" fill="white"/>
<path d="M185.772 210.591L186.904 221.449C186.904 221.449 176.246 226.242 176.256 228.281L197.386 226.857L196.322 209.84L185.772 210.591Z" fill="#455A64"/>
<g opacity="0.3">
<path d="M185.772 210.591L186.904 221.449C186.904 221.449 176.246 226.242 176.256 228.281L197.386 226.857L196.322 209.84L185.772 210.591Z" fill="black"/>
</g>
<g opacity="0.6">
<path d="M193.37 220.088C193.577 220.136 193.759 220.258 193.882 220.432C194.004 220.606 194.058 220.819 194.034 221.03C193.993 221.239 193.874 221.425 193.701 221.55C193.527 221.674 193.313 221.727 193.102 221.698C192.882 221.646 192.689 221.515 192.561 221.329C192.432 221.144 192.376 220.917 192.404 220.693C192.468 220.479 192.613 220.299 192.808 220.19C193.003 220.081 193.232 220.051 193.448 220.108" fill="white"/>
</g>
<g opacity="0.6">
<path d="M197.381 226.842L197.21 225.129L177.012 227.14C177.012 227.14 176.1 227.628 176.251 228.267L197.381 226.842Z" fill="white"/>
</g>
<path d="M186.548 221.367C186.548 221.469 187.08 221.479 187.607 221.776C188.134 222.074 188.436 222.489 188.529 222.445C188.622 222.401 188.426 221.811 187.777 221.469C187.128 221.127 186.518 221.274 186.548 221.367Z" fill="#263238"/>
<path d="M184.396 222.43C184.396 222.533 184.835 222.679 185.215 223.089C185.596 223.499 185.703 223.958 185.83 223.948C185.957 223.938 185.957 223.348 185.474 222.845C184.991 222.343 184.391 222.333 184.396 222.43Z" fill="#263238"/>
<path d="M183.312 225.168C183.41 225.168 183.517 224.68 183.215 224.114C182.912 223.548 182.414 223.372 182.375 223.46C182.336 223.548 182.658 223.831 182.897 224.285C183.137 224.739 183.21 225.168 183.312 225.168Z" fill="#263238"/>
<path d="M186.567 218.863C186.616 218.951 187.08 218.78 187.665 218.78C188.251 218.78 188.719 218.931 188.763 218.839C188.807 218.746 188.353 218.409 187.66 218.419C186.967 218.429 186.509 218.785 186.567 218.863Z" fill="#263238"/>
<path d="M186.377 216.672C186.73 216.743 187.097 216.716 187.436 216.594C187.813 216.501 188.177 216.362 188.519 216.179C188.723 216.072 188.918 215.952 189.105 215.818C189.22 215.744 189.322 215.652 189.407 215.545C189.47 215.466 189.503 215.369 189.503 215.269C189.503 215.169 189.47 215.072 189.407 214.993C189.352 214.925 189.281 214.871 189.2 214.835C189.12 214.8 189.032 214.784 188.944 214.788C188.809 214.795 188.675 214.823 188.549 214.871C188.326 214.942 188.111 215.032 187.904 215.14C187.559 215.326 187.244 215.565 186.972 215.847C186.514 216.335 186.372 216.731 186.411 216.75C186.45 216.77 186.675 216.443 187.148 216.033C187.423 215.796 187.728 215.595 188.056 215.437C188.248 215.346 188.447 215.27 188.651 215.208C188.871 215.135 189.061 215.12 189.139 215.208C189.217 215.296 189.168 215.262 189.139 215.33C189.074 215.405 189 215.472 188.919 215.53C188.739 215.662 188.558 215.779 188.378 215.886C188.067 216.069 187.741 216.223 187.402 216.345C187.053 216.43 186.71 216.539 186.377 216.672Z" fill="#263238"/>
<path d="M186.523 216.809C186.702 216.492 186.776 216.126 186.733 215.764C186.724 215.372 186.648 214.984 186.509 214.618C186.427 214.399 186.323 214.189 186.196 213.993C186.13 213.857 186.03 213.74 185.905 213.655C185.78 213.569 185.635 213.518 185.484 213.505C185.39 213.513 185.301 213.547 185.227 213.604C185.152 213.661 185.096 213.739 185.064 213.827C185.021 213.955 184.993 214.088 184.981 214.222C184.93 214.867 185.137 215.506 185.557 215.999C186.006 216.521 186.445 216.613 186.45 216.579C186.455 216.545 186.109 216.35 185.757 215.842C185.553 215.551 185.414 215.217 185.352 214.866C185.325 214.664 185.325 214.459 185.352 214.256C185.352 214.027 185.44 213.842 185.528 213.856C185.616 213.871 185.821 214.008 185.923 214.178C186.037 214.355 186.137 214.541 186.221 214.735C186.364 215.067 186.458 215.419 186.499 215.779C186.548 216.399 186.465 216.794 186.523 216.809Z" fill="#263238"/>
<path d="M183.937 131.126C183.937 131.126 174.577 173.621 174.289 177.417C174.001 181.214 185.894 213.968 185.894 213.968L196.142 212.016C196.142 212.016 195.493 163.641 195.166 162.694C194.839 161.748 197.777 137.967 197.777 137.967L183.937 131.126Z" fill="#263238"/>
<path d="M190.476 211.099L190.588 222.011C190.588 222.011 179.53 225.793 179.364 227.813L200.534 228.033L201.056 211.338L190.476 211.099Z" fill="#455A64"/>
<g opacity="0.6">
<path d="M197.152 221.264C197.349 221.33 197.516 221.465 197.622 221.644C197.728 221.824 197.766 222.035 197.728 222.24C197.667 222.441 197.533 222.612 197.353 222.719C197.172 222.826 196.957 222.86 196.752 222.816C196.538 222.744 196.358 222.596 196.247 222.399C196.137 222.203 196.102 221.972 196.152 221.752C196.234 221.545 196.395 221.377 196.599 221.286C196.803 221.195 197.035 221.187 197.245 221.264" fill="white"/>
</g>
<g opacity="0.6">
<path d="M200.524 228.033V226.637L180.228 226.759C180.228 226.759 179.277 227.144 179.364 227.813L200.524 228.033Z" fill="white"/>
</g>
<path d="M190.247 221.898C190.247 222.001 190.764 222.059 191.267 222.386C191.769 222.713 192.023 223.172 192.121 223.133C192.218 223.094 192.077 222.494 191.467 222.089C190.857 221.684 190.227 221.801 190.247 221.898Z" fill="#263238"/>
<path d="M188.002 222.757C187.978 222.86 188.422 223.045 188.758 223.489C189.095 223.933 189.193 224.402 189.295 224.402C189.398 224.402 189.476 223.816 189.046 223.27C188.617 222.723 188.007 222.66 188.002 222.757Z" fill="#263238"/>
<path d="M186.675 225.383C186.767 225.383 186.924 224.895 186.675 224.324C186.426 223.753 185.948 223.514 185.899 223.597C185.85 223.68 186.143 223.992 186.343 224.465C186.543 224.939 186.572 225.373 186.675 225.383Z" fill="#263238"/>
<path d="M190.5 219.405C190.539 219.502 191.018 219.371 191.598 219.405C192.179 219.439 192.633 219.659 192.692 219.571C192.75 219.483 192.321 219.083 191.633 219.049C190.944 219.014 190.452 219.322 190.5 219.405Z" fill="#263238"/>
<g opacity="0.3">
<path d="M190.5 213.261L190.515 215.203L200.924 215.374L200.983 213.622L190.5 213.261Z" fill="black"/>
</g>
<path d="M190.515 217.204C190.861 217.302 191.228 217.302 191.574 217.204C191.96 217.146 192.337 217.042 192.696 216.892C192.909 216.804 193.114 216.701 193.311 216.584C193.432 216.522 193.543 216.442 193.638 216.345C193.708 216.273 193.751 216.18 193.763 216.08C193.774 215.98 193.753 215.88 193.702 215.794C193.651 215.721 193.584 215.66 193.506 215.618C193.428 215.576 193.342 215.552 193.253 215.55C193.118 215.543 192.983 215.558 192.853 215.594C192.625 215.641 192.403 215.712 192.189 215.803C191.833 215.956 191.504 216.164 191.213 216.418C190.725 216.862 190.535 217.243 190.569 217.262C190.603 217.282 190.862 216.979 191.369 216.618C191.672 216.414 192 216.25 192.345 216.13C192.545 216.054 192.75 215.996 192.96 215.955C193.185 215.906 193.375 215.906 193.448 216.008C193.521 216.111 193.472 216.062 193.424 216.125C193.353 216.195 193.272 216.255 193.184 216.301C193 216.415 192.81 216.518 192.614 216.609C192.281 216.764 191.935 216.886 191.579 216.975C191.219 217.024 190.863 217.101 190.515 217.204Z" fill="#263238"/>
<path d="M190.647 217.355C190.853 217.057 190.961 216.702 190.954 216.34C190.981 215.948 190.942 215.553 190.837 215.174C190.776 214.949 190.691 214.731 190.584 214.525C190.53 214.383 190.441 214.257 190.325 214.159C190.209 214.062 190.069 213.996 189.92 213.968C189.825 213.968 189.732 213.995 189.653 214.046C189.573 214.097 189.51 214.17 189.471 214.256C189.412 214.378 189.373 214.508 189.354 214.642C189.315 214.878 189.315 215.118 189.354 215.354C189.402 215.753 189.548 216.133 189.778 216.462C190.179 217.018 190.608 217.155 190.613 217.121C190.618 217.087 190.296 216.862 189.993 216.326C189.818 216.017 189.711 215.674 189.681 215.32C189.665 215.116 189.678 214.911 189.72 214.71C189.759 214.486 189.847 214.305 189.93 214.33C190.013 214.354 190.208 214.505 190.291 214.686C190.389 214.872 190.473 215.067 190.54 215.267C190.648 215.611 190.709 215.969 190.72 216.33C190.71 216.955 190.593 217.336 190.647 217.355Z" fill="#263238"/>
<path d="M207.727 130.472L183.937 131.126L187.353 173.455L189.471 214.256L201.812 214.686C202.442 206.81 202.486 178.979 202.486 178.979L204.96 162.172C205.536 157.639 207.356 152.876 208.235 148.806C208.747 146.42 209.498 143.321 209.659 142.306C210.152 139.314 207.727 130.472 207.727 130.472Z" fill="#263238"/>
<path d="M185.323 140.866C185.328 140.929 185.328 140.993 185.323 141.056C185.323 141.193 185.323 141.378 185.323 141.613C185.323 142.101 185.274 142.833 185.24 143.75C185.206 144.668 185.152 145.814 185.113 147.132C185.074 148.45 185.006 149.953 184.976 151.612C184.884 154.93 184.835 158.883 184.854 163.275C184.874 167.667 184.991 172.488 185.24 177.549C185.489 182.61 185.879 187.426 186.318 191.794C186.557 193.975 186.767 196.049 187.031 197.986C187.158 198.962 187.265 199.89 187.392 200.788C187.519 201.686 187.651 202.544 187.773 203.364C187.997 205.009 188.261 206.487 188.47 207.79C188.68 209.093 188.88 210.23 189.056 211.123L189.432 213.227C189.471 213.461 189.505 213.642 189.524 213.773C189.53 213.837 189.53 213.9 189.524 213.964C189.503 213.903 189.487 213.841 189.476 213.778C189.451 213.646 189.412 213.466 189.363 213.236C189.261 212.748 189.119 212.041 188.939 211.138C188.758 210.235 188.534 209.113 188.314 207.81C188.095 206.507 187.826 205.033 187.577 203.389C187.45 202.569 187.319 201.71 187.182 200.812C187.05 199.914 186.938 198.977 186.806 198.011C186.533 196.059 186.318 194 186.069 191.813C185.62 187.446 185.23 182.629 184.971 177.564C184.713 172.498 184.625 167.667 184.605 163.275C184.586 158.883 184.669 154.925 184.781 151.607C184.82 149.948 184.898 148.445 184.952 147.127C185.006 145.81 185.064 144.687 185.118 143.745C185.171 142.803 185.22 142.11 185.25 141.608C185.25 141.374 185.279 141.193 185.289 141.056C185.295 140.992 185.306 140.928 185.323 140.866Z" fill="#455A64"/>
<path d="M171.781 84.2581L165.691 77.7531L160.889 81.1154L165.691 88.2206L171.781 84.2581Z" fill="#FFD3C1"/>
<path d="M210.299 86.659L210.006 82.5354L196.249 82.3402L196.132 87.5179C196.132 87.5179 189.378 94.8379 186.924 103.012C182.805 116.783 181.312 134.312 181.312 134.312H209.464C209.171 129.461 207.171 118.608 207.171 118.608L213.427 99.9424C214.984 93.2324 210.299 86.659 210.299 86.659Z" fill="#FD2C2C"/>
<path d="M176.236 105.296C176.236 105.296 176.314 105.374 176.471 105.506C176.695 105.709 176.935 105.895 177.188 106.062C178.113 106.685 179.168 107.091 180.272 107.248C181.033 107.356 181.807 107.348 182.566 107.223C183.381 107.131 184.254 107.018 185.172 106.896C187.011 106.648 189.027 106.335 191.135 105.979L201.92 104.09L205.194 103.554L206.087 103.412L206.395 103.354L206.082 103.393L205.189 103.515C204.413 103.622 203.291 103.793 201.905 104.003C199.138 104.447 195.332 105.149 191.115 105.867C189.007 106.223 186.997 106.535 185.162 106.789C184.244 106.911 183.371 107.028 182.551 107.126C180.694 107.438 178.787 107.042 177.207 106.018C176.957 105.853 176.716 105.673 176.485 105.481C176.324 105.359 176.236 105.296 176.236 105.296Z" fill="#263238"/>
<path d="M211.167 98.6443C211.183 98.6086 211.193 98.5707 211.197 98.5321C211.197 98.4345 211.241 98.3271 211.265 98.2148C211.319 97.9367 211.387 97.5365 211.46 97.0339C211.673 95.7296 211.639 94.3969 211.358 93.1055C211.043 91.8037 210.264 90.6617 209.167 89.8945C208.833 89.6731 208.465 89.5083 208.078 89.4065C207.938 89.366 207.794 89.3382 207.649 89.3235C208.171 89.4485 208.666 89.665 209.113 89.9628C210.177 90.7335 210.931 91.8581 211.241 93.1348C211.519 94.4177 211.562 95.7405 211.367 97.0388C211.309 97.5268 211.25 97.9416 211.206 98.2197C211.206 98.3369 211.192 98.4442 211.163 98.5418C211.16 98.576 211.162 98.6105 211.167 98.6443Z" fill="#263238"/>
<path d="M181.882 101.992C181.89 101.89 181.89 101.787 181.882 101.685L181.804 100.845C181.729 99.9249 181.701 99.0014 181.721 98.0783C181.747 97.1544 181.821 96.2325 181.941 95.3162C181.985 95.0185 182.024 94.7452 182.063 94.4866C182.082 94.3851 182.094 94.2824 182.097 94.1791C182.065 94.2765 182.038 94.376 182.019 94.4768C181.975 94.672 181.921 94.9648 181.868 95.3064C181.577 97.1417 181.529 99.0073 181.726 100.855C181.765 101.206 181.804 101.494 181.838 101.689C181.843 101.792 181.858 101.893 181.882 101.992Z" fill="#263238"/>
<path d="M196.293 87.4398C196.638 86.4826 197.146 85.5926 197.796 84.8095C198.772 83.4773 199.846 82.0816 201.383 81.4521C202.427 81.0275 205.126 81.2617 205.848 80.3931C208.093 77.6701 204.804 76.0011 205.994 72.2386C207.307 68.1443 206.629 68.7738 206.731 65.5481L211.714 63.3961C212.499 63.9817 214.676 66.0947 214.437 67.0463C214.205 68.0878 214.271 69.1735 214.627 70.1793C215.393 72.5851 218.043 74.0003 219.292 76.1914C220.542 78.3825 219.126 81.4081 219.092 83.9994C219.058 86.5907 220.034 89.6895 222.557 90.2507C221.603 92.1585 220.05 93.7012 218.136 94.6427L216.555 92.4906C216.681 93.474 216.457 94.4705 215.921 95.305C215.386 96.1395 214.573 96.7585 213.627 97.0534C213.095 94.7842 212.538 92.4516 211.162 90.5679C209.786 88.6842 207.4 87.352 205.15 87.9571C203.642 88.3573 202.481 89.5187 201.134 90.3044C199.787 91.0901 197.884 91.4268 196.81 90.3044C196.484 89.912 196.265 89.4421 196.175 88.9401C196.084 88.4382 196.125 87.9214 196.293 87.4398Z" fill="#263238"/>
<g opacity="0.3">
<path d="M186.904 106.569C193.394 105.388 202.032 103.973 208.522 102.787C208.762 102.719 209.015 102.719 209.254 102.787C209.457 102.899 209.609 103.085 209.676 103.307C209.744 103.528 209.722 103.768 209.616 103.973C209.385 104.378 209.029 104.697 208.601 104.881C206.468 105.994 203.974 106.086 201.573 106.15L186.904 106.565V106.569Z" fill="black"/>
</g>
<path d="M182.185 107.218C184.205 107.258 207.434 103.012 207.434 103.012L182.185 107.218Z" fill="#FD2C2C"/>
<path d="M207.039 88.5085C208.742 88.7184 209.85 88.9965 211.841 91.1437C212.071 91.3968 212.269 91.677 212.431 91.9782C214.647 95.8822 213.046 101.25 208.801 102.739L204.692 103.583L182.185 107.218C182.185 107.218 177.393 108.292 173.274 101.904C171.766 99.5569 161.367 84.0482 161.367 84.0482L168.199 79.4756L181.97 94.2084L207.039 88.5085Z" fill="#FD2C2C"/>
<path d="M176.236 105.296C176.236 105.296 176.314 105.374 176.471 105.506C176.695 105.709 176.935 105.895 177.188 106.062C178.113 106.685 179.168 107.091 180.272 107.248C181.033 107.356 181.807 107.348 182.566 107.223C183.381 107.131 184.254 107.018 185.172 106.896C187.011 106.648 189.027 106.335 191.135 105.979L201.92 104.09L205.194 103.554L206.087 103.412L206.395 103.354L206.082 103.393L205.189 103.515C204.413 103.622 203.291 103.793 201.905 104.003C199.138 104.447 195.332 105.149 191.115 105.867C189.007 106.223 186.997 106.535 185.162 106.789C184.244 106.911 183.371 107.028 182.551 107.126C180.694 107.438 178.787 107.042 177.207 106.018C176.957 105.853 176.716 105.673 176.485 105.481C176.324 105.359 176.236 105.296 176.236 105.296Z" fill="#263238"/>
<path d="M211.167 98.6443C211.183 98.6086 211.193 98.5707 211.197 98.5321C211.197 98.4345 211.241 98.3271 211.265 98.2148C211.319 97.9367 211.387 97.5365 211.46 97.0339C211.673 95.7296 211.639 94.3969 211.358 93.1055C211.043 91.8037 210.264 90.6617 209.167 89.8945C208.833 89.6731 208.465 89.5083 208.078 89.4065C207.938 89.366 207.794 89.3382 207.649 89.3235C208.171 89.4485 208.666 89.665 209.113 89.9628C210.177 90.7335 210.931 91.8581 211.241 93.1348C211.519 94.4177 211.562 95.7405 211.367 97.0388C211.309 97.5268 211.25 97.9416 211.206 98.2197C211.206 98.3369 211.192 98.4442 211.163 98.5418C211.16 98.576 211.162 98.6105 211.167 98.6443Z" fill="#263238"/>
<path d="M181.882 101.992C181.89 101.89 181.89 101.787 181.882 101.685L181.804 100.845C181.729 99.9249 181.701 99.0014 181.721 98.0783C181.747 97.1544 181.821 96.2325 181.941 95.3162C181.985 95.0185 182.024 94.7452 182.063 94.4866C182.082 94.3851 182.094 94.2824 182.097 94.1791C182.065 94.2765 182.038 94.376 182.019 94.4768C181.975 94.672 181.921 94.9648 181.868 95.3064C181.577 97.1417 181.529 99.0073 181.726 100.855C181.765 101.206 181.804 101.494 181.838 101.689C181.843 101.792 181.858 101.893 181.882 101.992Z" fill="#263238"/>
<path d="M165.661 72.712C165.525 71.7848 165.483 70.8464 165.534 69.9108C165.539 69.8633 165.533 69.8153 165.517 69.7704C165.5 69.7255 165.474 69.6849 165.44 69.6516C165.406 69.6182 165.364 69.5931 165.319 69.578C165.274 69.5629 165.225 69.5582 165.178 69.5644C164.885 69.6028 164.609 69.7271 164.386 69.9216C164.163 70.116 164.002 70.372 163.924 70.6575C163.773 71.1684 163.725 71.7041 163.782 72.2337C163.782 73.1024 163.782 73.7904 163.782 73.7904C163.782 73.7904 159.449 68.603 158.571 68.3688C158.498 68.3334 158.418 68.3129 158.337 68.3085C158.257 68.3041 158.176 68.3159 158.099 68.3432C158.023 68.3704 157.953 68.4126 157.893 68.4673C157.833 68.522 157.785 68.588 157.751 68.6616C157.59 68.9202 157.912 69.5253 157.912 69.5253L160.352 73.0194C160.352 73.0194 156.658 68.6762 155.989 68.686C155.32 68.6957 155.013 69.174 155.447 69.9792C155.765 70.5696 158.99 74.3712 158.99 74.3712C158.99 74.3712 155.54 71.043 154.852 71.0674C154.164 71.0918 154.281 71.8238 154.642 72.1264C155.003 72.4289 157.57 75.4008 157.57 75.4008C157.57 75.4008 155.076 73.2927 154.574 73.4488C154.071 73.605 154.286 74.1711 154.549 74.6249C154.813 75.0788 161.069 81.33 161.069 81.33L166.496 78.607C166.637 77.8456 166.608 77.0626 166.413 76.3134C166.085 75.1304 165.834 73.9274 165.661 72.712Z" fill="#FFD3C1"/>
<path d="M85.981 134.351C84.6604 134.346 83.3956 133.818 82.4636 132.882C81.5316 131.947 81.0083 130.68 81.0083 129.359V85.9563C81.0465 84.8608 81.5173 83.825 82.3177 83.0759C83.118 82.3268 84.1826 81.9254 85.2783 81.9596H89.358C90.1607 81.9756 90.9519 81.7665 91.6418 81.3559C92.3318 80.9454 92.8931 80.3498 93.262 79.6367L94.1355 77.8555C94.5026 77.1462 95.06 76.5531 95.7452 76.1429C96.4305 75.7326 97.2165 75.5213 98.0151 75.5327H117.384C118.112 75.5232 118.83 75.6971 119.473 76.0382C120.116 76.3793 120.663 76.8767 121.063 77.4847L122.015 78.9926C122.414 79.6001 122.96 80.0974 123.603 80.4385C124.245 80.7796 124.962 80.9536 125.69 80.9446H150.382C151.479 80.9091 152.545 81.3107 153.346 82.0611C154.147 82.8115 154.617 83.8493 154.652 84.9462V129.354C154.652 130.678 154.126 131.948 153.19 132.884C152.254 133.82 150.984 134.346 149.66 134.346L85.981 134.351Z" fill="#FD2C2C"/>
<g opacity="0.3">
<path d="M85.981 134.351C84.6604 134.346 83.3956 133.818 82.4636 132.882C81.5316 131.947 81.0083 130.68 81.0083 129.359V85.9563C81.0465 84.8608 81.5173 83.825 82.3177 83.0759C83.118 82.3268 84.1826 81.9254 85.2783 81.9596H89.358C90.1607 81.9756 90.9519 81.7665 91.6418 81.3559C92.3318 80.9454 92.8931 80.3498 93.262 79.6367L94.1355 77.8555C94.5026 77.1462 95.06 76.5531 95.7452 76.1429C96.4305 75.7326 97.2165 75.5213 98.0151 75.5327H117.384C118.112 75.5232 118.83 75.6971 119.473 76.0382C120.116 76.3793 120.663 76.8767 121.063 77.4847L122.015 78.9926C122.414 79.6001 122.96 80.0974 123.603 80.4385C124.245 80.7796 124.962 80.9536 125.69 80.9446H150.382C151.479 80.9091 152.545 81.3107 153.346 82.0611C154.147 82.8115 154.617 83.8493 154.652 84.9462V129.354C154.652 130.678 154.126 131.948 153.19 132.884C152.254 133.82 150.984 134.346 149.66 134.346L85.981 134.351Z" fill="black"/>
</g>
<path d="M123.21 80.969L107.497 80.9348L106.096 78.3094C105.62 77.4571 104.922 76.7492 104.077 76.2604C103.232 75.7717 102.27 75.5203 101.294 75.5327H85.9368C83.204 75.5327 80.9885 77.6067 80.9885 80.1687V129.086C80.9885 132.014 83.5066 134.351 86.6103 134.351H148.986C152.095 134.351 154.608 131.994 154.608 129.086V84.5655C154.608 83.6117 154.229 82.6969 153.555 82.0224C152.88 81.3479 151.966 80.969 151.012 80.969H123.21Z" fill="#FD2C2C"/>
<path d="M131.131 118.037H124.177C124.047 118.037 123.923 117.986 123.832 117.895C123.74 117.803 123.689 117.679 123.689 117.549C123.689 117.42 123.74 117.296 123.832 117.204C123.923 117.113 124.047 117.061 124.177 117.061H131.131C132.934 117.065 134.667 116.364 135.961 115.108C137.255 113.852 138.007 112.14 138.057 110.337C138.106 108.534 137.45 106.784 136.227 105.458C135.004 104.132 133.312 103.337 131.511 103.241C131.407 103.236 131.307 103.198 131.227 103.132C131.146 103.066 131.088 102.976 131.062 102.875C130.549 100.891 129.493 99.0896 128.014 97.6711C126.535 96.2526 124.691 95.2734 122.687 94.843C120.683 94.4127 118.6 94.548 116.669 95.234C114.737 95.9199 113.035 97.1294 111.752 98.7273C111.7 98.7931 111.632 98.8443 111.554 98.8759C111.476 98.9075 111.391 98.9185 111.308 98.9079C110.958 98.8627 110.606 98.8399 110.254 98.8396C107.875 98.8946 105.611 99.8785 103.948 101.581C102.285 103.283 101.354 105.568 101.354 107.948C101.354 110.328 102.285 112.613 103.948 114.316C105.611 116.018 107.875 117.002 110.254 117.057H115.89C116.02 117.057 116.144 117.108 116.235 117.2C116.327 117.291 116.378 117.415 116.378 117.545C116.378 117.674 116.327 117.798 116.235 117.89C116.144 117.981 116.02 118.033 115.89 118.033H110.23C107.553 118.033 104.986 116.969 103.094 115.077C101.201 113.184 100.138 110.617 100.138 107.941C100.138 105.264 101.201 102.697 103.094 100.805C104.986 98.9122 107.553 97.8489 110.23 97.8489C110.53 97.8491 110.829 97.8654 111.127 97.8977C112.529 96.2227 114.36 94.9607 116.424 94.2469C118.488 93.5331 120.707 93.3944 122.844 93.8457C124.981 94.2971 126.955 95.3214 128.554 96.8089C130.153 98.2964 131.317 100.191 131.921 102.29C133.948 102.478 135.824 103.443 137.157 104.981C138.49 106.52 139.178 108.514 139.076 110.547C138.974 112.581 138.09 114.496 136.61 115.893C135.129 117.291 133.166 118.063 131.131 118.047V118.037Z" fill="white"/>
<path d="M119.887 122.488C119.758 122.488 119.633 122.437 119.542 122.345C119.45 122.254 119.399 122.129 119.399 122V109.312C119.399 109.183 119.45 109.058 119.542 108.967C119.633 108.875 119.758 108.824 119.887 108.824C120.016 108.824 120.14 108.875 120.232 108.967C120.324 109.058 120.375 109.183 120.375 109.312V122C120.375 122.129 120.324 122.254 120.232 122.345C120.14 122.437 120.016 122.488 119.887 122.488Z" fill="white"/>
<path d="M123.596 114.363C123.519 114.364 123.443 114.346 123.375 114.312C123.306 114.278 123.246 114.229 123.2 114.168L119.97 109.834C119.958 109.82 119.943 109.809 119.926 109.801C119.909 109.793 119.891 109.79 119.872 109.79C119.855 109.791 119.837 109.795 119.821 109.802C119.805 109.81 119.791 109.821 119.78 109.834L116.364 114.046C116.281 114.147 116.162 114.212 116.032 114.226C115.902 114.239 115.772 114.201 115.671 114.119C115.569 114.037 115.504 113.917 115.491 113.788C115.477 113.658 115.515 113.527 115.597 113.426L119.013 109.214C119.121 109.086 119.255 108.982 119.407 108.912C119.559 108.841 119.724 108.804 119.892 108.805C120.059 108.807 120.223 108.847 120.371 108.923C120.52 108.998 120.65 109.106 120.751 109.239L123.991 113.577C124.03 113.629 124.058 113.688 124.074 113.751C124.09 113.813 124.093 113.879 124.084 113.943C124.074 114.007 124.052 114.068 124.019 114.124C123.985 114.179 123.941 114.227 123.889 114.265C123.804 114.329 123.701 114.363 123.596 114.363Z" fill="white"/>
<path d="M110.366 144.633V142.447H110.776V144.619C110.776 145.526 111.201 145.941 111.942 145.941C112.684 145.941 113.114 145.526 113.114 144.619V142.447H113.509V144.633C113.509 145.731 112.918 146.298 111.942 146.298C110.966 146.298 110.366 145.731 110.366 144.633Z" fill="#263238"/>
<path d="M117.545 144.834C117.556 145.026 117.526 145.218 117.459 145.398C117.391 145.579 117.287 145.743 117.153 145.881C117.018 146.018 116.856 146.127 116.678 146.198C116.499 146.27 116.307 146.304 116.115 146.298C115.899 146.305 115.686 146.256 115.494 146.157C115.303 146.058 115.14 145.911 115.022 145.731V147.332H114.636V143.428H115.007V143.96C115.124 143.773 115.287 143.62 115.482 143.516C115.676 143.413 115.895 143.362 116.115 143.37C116.307 143.364 116.498 143.398 116.677 143.47C116.855 143.542 117.016 143.65 117.151 143.788C117.285 143.926 117.39 144.089 117.457 144.269C117.525 144.449 117.555 144.641 117.545 144.834ZM117.159 144.834C117.151 144.623 117.08 144.42 116.957 144.249C116.834 144.079 116.664 143.948 116.467 143.873C116.27 143.799 116.056 143.784 115.851 143.83C115.645 143.876 115.458 143.982 115.312 144.134C115.166 144.285 115.069 144.477 115.031 144.684C114.993 144.891 115.016 145.104 115.099 145.298C115.181 145.491 115.318 145.657 115.494 145.773C115.669 145.889 115.875 145.951 116.086 145.951C116.231 145.953 116.375 145.926 116.509 145.87C116.644 145.814 116.765 145.731 116.866 145.626C116.966 145.521 117.044 145.397 117.095 145.26C117.145 145.124 117.167 144.979 117.159 144.834Z" fill="#263238"/>
<path d="M118.335 142.218H118.721V146.268H118.335V142.218Z" fill="#263238"/>
<path d="M119.511 144.834C119.511 144.544 119.597 144.261 119.758 144.02C119.919 143.779 120.148 143.592 120.415 143.481C120.683 143.37 120.977 143.341 121.261 143.398C121.545 143.454 121.806 143.594 122.011 143.798C122.215 144.003 122.355 144.264 122.411 144.548C122.468 144.832 122.439 145.126 122.328 145.394C122.217 145.661 122.029 145.89 121.789 146.051C121.548 146.212 121.265 146.298 120.975 146.298C120.781 146.304 120.588 146.271 120.407 146.2C120.226 146.129 120.062 146.021 119.925 145.884C119.788 145.747 119.68 145.582 119.609 145.402C119.538 145.221 119.505 145.028 119.511 144.834ZM122.039 144.834C122.03 144.624 121.959 144.422 121.835 144.253C121.712 144.084 121.542 143.954 121.346 143.881C121.149 143.808 120.936 143.794 120.732 143.841C120.528 143.888 120.342 143.994 120.198 144.145C120.053 144.297 119.956 144.488 119.92 144.694C119.883 144.9 119.907 145.113 119.99 145.305C120.073 145.498 120.211 145.661 120.386 145.776C120.561 145.891 120.766 145.952 120.975 145.951C121.12 145.953 121.264 145.926 121.398 145.87C121.532 145.814 121.652 145.73 121.752 145.625C121.852 145.52 121.929 145.396 121.979 145.26C122.028 145.123 122.049 144.978 122.039 144.834Z" fill="#263238"/>
<path d="M125.372 144.487V146.268H125.001V145.819C124.896 145.98 124.751 146.109 124.579 146.195C124.408 146.281 124.217 146.32 124.025 146.307C123.376 146.307 122.981 145.971 122.981 145.473C122.981 144.975 123.264 144.663 124.089 144.663H124.996V144.487C124.996 143.999 124.718 143.726 124.186 143.726C123.83 143.717 123.483 143.839 123.21 144.067L123.035 143.775C123.368 143.516 123.779 143.38 124.201 143.389C124.354 143.365 124.51 143.377 124.658 143.423C124.806 143.468 124.941 143.547 125.054 143.653C125.167 143.759 125.254 143.889 125.309 144.033C125.364 144.178 125.386 144.333 125.372 144.487ZM124.982 145.404V144.916H124.084C123.528 144.916 123.347 145.136 123.347 145.429C123.347 145.722 123.615 145.971 124.074 145.971C124.263 145.984 124.452 145.939 124.615 145.842C124.777 145.744 124.906 145.598 124.982 145.424V145.404Z" fill="#263238"/>
<path d="M129.052 142.218V146.268H128.681V145.697C128.566 145.886 128.403 146.041 128.208 146.146C128.013 146.251 127.794 146.301 127.573 146.293C127.185 146.293 126.812 146.138 126.538 145.864C126.263 145.589 126.109 145.217 126.109 144.829C126.109 144.44 126.263 144.068 126.538 143.793C126.812 143.519 127.185 143.365 127.573 143.365C127.789 143.357 128.002 143.405 128.194 143.504C128.385 143.603 128.548 143.75 128.666 143.931V142.208L129.052 142.218ZM128.671 144.834C128.662 144.624 128.591 144.422 128.467 144.253C128.344 144.084 128.174 143.954 127.978 143.881C127.781 143.808 127.568 143.794 127.364 143.841C127.16 143.888 126.974 143.994 126.829 144.145C126.685 144.297 126.588 144.488 126.552 144.694C126.515 144.9 126.539 145.113 126.622 145.305C126.705 145.498 126.842 145.661 127.018 145.776C127.193 145.891 127.398 145.952 127.607 145.951C127.752 145.953 127.896 145.924 128.029 145.868C128.162 145.812 128.283 145.729 128.382 145.624C128.482 145.519 128.559 145.395 128.609 145.259C128.659 145.123 128.68 144.978 128.671 144.834Z" fill="#263238"/>
<path d="M129.881 145.995C129.88 145.956 129.886 145.918 129.9 145.882C129.914 145.846 129.935 145.813 129.962 145.785C129.989 145.757 130.021 145.735 130.057 145.72C130.092 145.705 130.131 145.697 130.169 145.697C130.208 145.697 130.247 145.705 130.282 145.72C130.318 145.735 130.351 145.757 130.378 145.785C130.405 145.812 130.427 145.845 130.441 145.881C130.456 145.917 130.463 145.956 130.462 145.995C130.462 146.073 130.431 146.148 130.377 146.204C130.322 146.259 130.247 146.291 130.169 146.293C130.131 146.292 130.093 146.284 130.058 146.268C130.022 146.253 129.99 146.231 129.964 146.203C129.937 146.176 129.916 146.143 129.902 146.107C129.888 146.072 129.881 146.033 129.881 145.995Z" fill="#263238"/>
<path d="M131.038 145.995C131.037 145.957 131.044 145.918 131.058 145.883C131.072 145.847 131.093 145.814 131.12 145.786C131.147 145.759 131.179 145.737 131.214 145.721C131.249 145.706 131.287 145.698 131.326 145.697C131.365 145.697 131.403 145.705 131.439 145.72C131.475 145.735 131.507 145.757 131.535 145.785C131.562 145.812 131.583 145.845 131.598 145.881C131.612 145.917 131.619 145.956 131.619 145.995C131.619 146.073 131.588 146.148 131.533 146.204C131.478 146.259 131.404 146.291 131.326 146.293C131.287 146.292 131.249 146.284 131.214 146.268C131.179 146.253 131.147 146.231 131.12 146.203C131.093 146.176 131.072 146.143 131.058 146.107C131.044 146.072 131.037 146.033 131.038 145.995Z" fill="#263238"/>
<path d="M132.195 145.995C132.193 145.956 132.2 145.918 132.214 145.882C132.227 145.846 132.248 145.813 132.275 145.785C132.302 145.757 132.334 145.735 132.37 145.72C132.406 145.705 132.444 145.697 132.482 145.697C132.521 145.697 132.56 145.705 132.596 145.72C132.631 145.735 132.664 145.757 132.691 145.785C132.718 145.812 132.74 145.845 132.754 145.881C132.769 145.917 132.776 145.956 132.775 145.995C132.775 146.073 132.745 146.148 132.69 146.204C132.635 146.259 132.561 146.291 132.482 146.293C132.444 146.292 132.406 146.284 132.371 146.268C132.335 146.253 132.304 146.231 132.277 146.203C132.25 146.176 132.229 146.143 132.215 146.107C132.201 146.072 132.194 146.033 132.195 145.995Z" fill="#263238"/>
<path d="M157.043 152.798H80.9349C79.148 152.798 77.6995 154.246 77.6995 156.033V156.975C77.6995 158.762 79.148 160.21 80.9349 160.21H157.043C158.83 160.21 160.279 158.762 160.279 156.975V156.033C160.279 154.246 158.83 152.798 157.043 152.798Z" fill="#E0E0E0"/>
<path d="M115.754 152.798H80.9349C79.148 152.798 77.6995 154.246 77.6995 156.033V156.975C77.6995 158.762 79.148 160.21 80.9349 160.21H115.754C117.541 160.21 118.989 158.762 118.989 156.975V156.033C118.989 154.246 117.541 152.798 115.754 152.798Z" fill="#FD2C2C"/>
<g opacity="0.3">
<path d="M83.9362 152.798L79.5442 159.771L80.2323 160.079C80.4271 160.166 80.6384 160.211 80.852 160.21H82.2477L87.0204 152.798H83.9362Z" fill="white"/>
</g>
<g opacity="0.3">
<path d="M91.793 152.798L87.1228 160.21H90.1045L94.8722 152.798H91.793Z" fill="white"/>
</g>
<g opacity="0.3">
<path d="M99.6448 152.798L94.9746 160.21H97.9563L102.729 152.798H99.6448Z" fill="white"/>
</g>
<g opacity="0.3">
<path d="M107.502 152.798L102.827 160.21H105.808L110.581 152.798H107.502Z" fill="white"/>
</g>
<g opacity="0.3">
<path d="M115.354 152.798L110.683 160.21H113.665L117.423 154.354L117.872 153.72C117.296 153.1 116.412 152.842 115.354 152.798Z" fill="white"/>
</g>
<path d="M157.136 160.21C157.136 160.21 157.287 160.21 157.58 160.162C158.015 160.102 158.433 159.95 158.805 159.718C159.416 159.344 159.885 158.777 160.137 158.107C160.297 157.683 160.37 157.232 160.352 156.78C160.382 156.264 160.343 155.747 160.235 155.243C160.08 154.657 159.762 154.127 159.318 153.715C158.874 153.303 158.322 153.026 157.727 152.915C157.39 152.867 157.051 152.849 156.712 152.861H153.374H142.725L81.0813 152.895C80.355 152.896 79.6513 153.148 79.0899 153.609C78.5286 154.07 78.1441 154.711 78.002 155.423C77.9477 155.781 77.9281 156.144 77.9435 156.506C77.9279 156.868 77.9524 157.229 78.0167 157.585C78.1628 158.275 78.5378 158.895 79.0809 159.345C79.6239 159.795 80.303 160.048 81.0081 160.064H87.4985H103.866L131.58 160.093L150.265 160.132L155.345 160.157H150.265L131.58 160.201L103.866 160.225H87.4985H81.0081C80.2398 160.218 79.4966 159.95 78.9007 159.465C78.3047 158.98 77.8915 158.307 77.7288 157.556C77.6594 157.183 77.6332 156.803 77.6507 156.424C77.6332 156.045 77.6545 155.666 77.7141 155.291C77.8658 154.521 78.2808 153.826 78.8879 153.328C79.4951 152.829 80.2567 152.557 81.0423 152.559L142.686 152.598H153.335H156.673C157.02 152.584 157.368 152.606 157.712 152.661C158.327 152.778 158.895 153.068 159.352 153.495C159.809 153.923 160.136 154.471 160.293 155.077C160.397 155.592 160.434 156.118 160.401 156.643C160.413 157.106 160.335 157.567 160.171 158C159.905 158.678 159.421 159.25 158.795 159.625C158.413 159.853 157.988 160 157.546 160.054C157.414 160.119 157.277 160.171 157.136 160.21Z" fill="#263238"/>
</svg>
